<svg width="149" height="34" viewBox="0 0 149 34" fill="none" xmlns="http://www.w3.org/2000/svg">
<path d="M17.353 0.555664L16.5471 4.873C19.3656 6.17536 21.1525 8.88763 21.1525 12.0154C21.1525 12.2106 21.1446 12.4071 21.13 12.6075H15.9723C16.409 10.2139 14.4376 9.12528 12.3121 9.12528H9.24004L8.39569 13.051L18.6606 14.8764C22.4336 15.5468 24.5711 18.9269 24.1529 22.5937C23.6511 26.9721 19.9696 29.6565 15.6364 29.6273L11.9244 29.6379L11.1717 33.6778H5.97018L6.72425 29.6379H0L1.70065 19.8363H6.94862L6.11754 24.5081H15.6364C17.0755 24.5081 18.2146 23.8974 18.6805 23.1446C19.335 22.0826 19.2766 20.1908 17.7791 19.9252L2.27284 17.1678L5.10592 3.99546H11.5102L12.1514 0.555664H17.353Z" fill="#907EFF"/>
<path d="M110.415 20.2702C110.415 20.8358 110.193 21.3031 109.751 21.6682C109.309 22.0373 108.697 22.2231 107.911 22.2231C107.23 22.2231 106.581 22.0705 105.958 21.7664C105.335 21.4611 104.933 21.2195 104.751 21.0389C104.571 20.857 104.432 20.7123 104.33 20.5968L102.368 22.5484L102.614 22.8166C102.756 22.9865 102.988 23.1936 103.313 23.4445C103.639 23.6901 104.017 23.9331 104.443 24.1747C104.871 24.4137 105.419 24.6208 106.077 24.7947C106.741 24.9686 107.425 25.0562 108.132 25.0562C109.929 25.0562 111.337 24.6101 112.364 23.7193C113.384 22.8272 113.896 21.6762 113.896 20.2702C113.896 19.2692 113.638 18.4475 113.12 17.7956C112.605 17.1438 111.976 16.6765 111.236 16.3937C110.497 16.1109 109.761 15.8653 109.03 15.6502C108.298 15.4418 107.674 15.1789 107.161 14.8723C106.65 14.5642 106.392 14.1554 106.392 13.6442C106.392 13.1915 106.581 12.8078 106.958 12.4879C107.337 12.1693 107.838 12.01 108.462 12.01C108.979 12.01 109.48 12.1294 109.969 12.3724C110.457 12.6114 110.777 12.8025 110.928 12.9512C111.081 13.0973 111.201 13.2167 111.284 13.3176L113.236 11.2453L113.049 11.0355C112.925 10.8868 112.725 10.7089 112.446 10.5098C112.167 10.3067 111.842 10.1075 111.471 9.91635C111.098 9.71986 110.624 9.54993 110.044 9.40523C109.461 9.26052 108.86 9.1875 108.24 9.1875C106.661 9.1875 105.378 9.62295 104.393 10.4925C103.404 11.3648 102.911 12.4162 102.911 13.6442C102.911 14.6439 103.169 15.467 103.686 16.1175C104.201 16.7707 104.827 17.238 105.56 17.5208C106.291 17.8036 107.027 18.0492 107.766 18.2563C108.506 18.466 109.131 18.7262 109.646 19.0382C110.157 19.3489 110.415 19.7591 110.415 20.2702Z" fill="#FEFEFE"/>
<path fill-rule="evenodd" clip-rule="evenodd" d="M115.683 9.50745V24.7256H118.952V19.7273H122.095C123.665 19.7273 124.964 19.2374 125.991 18.2563C127.015 17.2778 127.531 16.0644 127.531 14.6147C127.531 13.1689 127.015 11.9555 125.983 10.9771C124.954 9.996 123.657 9.50745 122.095 9.50745H115.683ZM121.987 12.4454C122.638 12.4454 123.183 12.6552 123.617 13.0787C124.052 13.4995 124.269 14.0133 124.269 14.6227C124.269 15.2307 124.052 15.7445 123.617 16.1613C123.183 16.5782 122.638 16.7893 121.987 16.7893H118.952V12.4454H121.987Z" fill="#FEFEFE"/>
<path d="M132.692 24.7256H129.423V9.50745H132.692V24.7256Z" fill="#FEFEFE"/>
<path d="M145.188 9.50745V19.1869L137.692 9.50745H134.859V24.7256H138.127V15.0568L145.622 24.7256H148.445V9.50745H145.188Z" fill="#FEFEFE"/>
<path fill-rule="evenodd" clip-rule="evenodd" d="M40.2163 23.4512C39.1701 24.3021 37.7363 24.7256 35.9136 24.7256H28.418V9.50745H35.4754C37.188 9.50745 38.5395 9.90174 39.5326 10.6956C40.5216 11.4882 41.0181 12.4295 41.0181 13.5274C41.0181 13.9443 40.9425 14.3425 40.7898 14.7236C40.6385 15.0993 40.4566 15.4046 40.2468 15.629C40.0397 15.8573 39.8299 16.0565 39.6202 16.2304C39.4131 16.4043 39.2352 16.5238 39.0865 16.5968L38.8515 16.6791C38.8961 16.6981 38.9524 16.7201 39.0216 16.7472C39.0636 16.7636 39.1105 16.782 39.1622 16.8026C39.3042 16.857 39.5392 16.9805 39.8698 17.1756C40.203 17.3681 40.4991 17.5925 40.7606 17.85C41.0248 18.1036 41.2611 18.4594 41.4669 18.9148C41.678 19.3715 41.7828 19.856 41.7828 20.3751C41.7828 21.5779 41.2611 22.6028 40.2163 23.4512ZM33.3022 18.6439V21.0309H35.4754C35.8512 21.0309 36.1631 20.9154 36.4101 20.6831C36.6597 20.4468 36.7831 20.164 36.7831 19.8321C36.7831 19.5016 36.6597 19.2188 36.4101 18.9918C36.1631 18.7594 35.8512 18.6439 35.4754 18.6439H33.3022ZM35.7144 13.4915C35.5139 13.303 35.2537 13.2088 34.9351 13.2088H33.3022V15.1617H34.9351C35.2537 15.1617 35.5139 15.0674 35.7144 14.8829C35.9175 14.6944 36.0184 14.462 36.0184 14.1872C36.0184 13.9111 35.9175 13.6801 35.7144 13.4915Z" fill="#FEFEFE"/>
<path d="M48.1333 20.7044V18.8577H53.5671V15.1617H48.1333V13.5274H55.3063V9.50745H43.2504V24.7256H55.5306V20.7044H48.1333Z" fill="#FEFEFE"/>
<path d="M56.8356 13.9628V9.50745H69.773V13.9628H65.7518V24.7256H60.8569V13.9628H56.8356Z" fill="#FEFEFE"/>
<path d="M71.5482 9.50745V13.9628H75.5695V24.7256H80.4643V13.9628H84.4856V9.50745H71.5482Z" fill="#FEFEFE"/>
<path d="M93.8785 14.7262L96.4912 9.50745H101.701L96.2668 19.2918V24.7256H91.3826V19.2918L85.9488 9.50745H91.1609L93.7736 14.7262H93.8785Z" fill="#FEFEFE"/>
</svg>
