<svg width="16" height="16" viewBox="0 0 16 16" fill="none" xmlns="http://www.w3.org/2000/svg">
<rect width="16" height="16" rx="8" fill="#907EFF"/>
<path d="M10.3558 1L10.014 2.82477C11.2092 3.37519 11.9664 4.52127 11.9664 5.84378C11.9664 5.92596 11.9635 6.0094 11.9569 6.09408H9.77051C9.95576 5.08207 9.11985 4.62214 8.21901 4.62214H6.91686L6.55885 6.28129L10.9103 7.05296C12.5097 7.33647 13.4159 8.76523 13.2382 10.3152C13.0255 12.1657 11.4652 13.3002 9.62814 13.2881L8.05499 13.2923L7.73528 15H5.53062L5.85033 13.2923H3L3.72101 9.14961H5.94566L5.59306 11.1242H9.62814C10.238 11.1242 10.7209 10.866 10.9182 10.5472C11.1963 10.0985 11.1713 9.29905 10.5365 9.18697L3.96329 8.02179L5.16428 2.45409H7.8789L8.15115 1H10.3558Z" fill="black"/>
</svg>
